<svg width="698" height="171" viewBox="0 0 698 171" fill="none" xmlns="http://www.w3.org/2000/svg">
<rect width="698" height="171" fill="white"/>
<path d="M244.273 70.2615H255.75C255.525 59.1386 246.042 51.2626 232.025 51.2626C218.202 51.2626 207.819 59.0422 207.851 70.6794C207.851 80.1307 214.57 85.5635 225.403 88.3603L232.893 90.2892C239.998 92.0894 244.691 94.3076 244.724 99.419C244.691 105.045 239.355 108.806 231.575 108.806C224.117 108.806 218.331 105.463 217.849 98.551H206.115C206.597 111.635 216.338 118.997 231.672 118.997C247.456 118.997 256.618 111.121 256.65 99.5154C256.618 88.1032 247.199 82.8953 237.298 80.5486L231.125 79.0055C225.725 77.7196 219.874 75.4372 219.938 69.94C219.97 64.9894 224.407 61.3568 231.865 61.3568C238.969 61.3568 243.663 64.6679 244.273 70.2615ZM298.24 97.233C298.24 104.755 292.872 108.484 287.728 108.484C282.135 108.484 278.406 104.53 278.406 98.2617V68.622H266.768V100.062C266.768 111.924 273.519 118.643 283.228 118.643C290.622 118.643 295.829 114.753 298.08 109.224H298.594V118H309.878V68.622H298.24V97.233ZM321.844 136.517H333.482V110.22H333.964C335.796 113.821 339.622 118.868 348.109 118.868C359.746 118.868 368.458 109.642 368.458 93.3753C368.458 76.916 359.489 67.9791 348.077 67.9791C339.365 67.9791 335.732 73.219 333.964 76.7874H333.289V68.622H321.844V136.517ZM333.257 93.311C333.257 83.7312 337.372 77.5268 344.862 77.5268C352.609 77.5268 356.596 84.1169 356.596 93.311C356.596 102.569 352.545 109.32 344.862 109.32C337.436 109.32 333.257 102.891 333.257 93.311ZM400.283 118.964C411.792 118.964 419.7 113.339 421.758 104.755L410.892 103.534C409.317 107.713 405.459 109.899 400.444 109.899C392.922 109.899 387.939 104.948 387.843 96.4936H422.24V92.9252C422.24 75.5979 411.824 67.9791 399.673 67.9791C385.528 67.9791 376.302 78.3626 376.302 93.6003C376.302 109.095 385.399 118.964 400.283 118.964ZM387.875 88.6497C388.228 82.3488 392.89 77.0446 399.833 77.0446C406.52 77.0446 411.021 81.9309 411.085 88.6497H387.875ZM432.085 118H443.722V88.9711C443.722 82.7025 448.448 78.2661 454.845 78.2661C456.806 78.2661 459.249 78.6198 460.246 78.9412V68.2362C459.185 68.0434 457.353 67.9148 456.067 67.9148C450.409 67.9148 445.683 71.1295 443.883 76.8517H443.369V68.622H432.085V118ZM460.471 62.1604H480.82V118H492.65V62.1604H512.999V52.1627H460.471V62.1604ZM530.102 118.997C537.849 118.997 542.478 115.364 544.6 111.217H544.986V118H556.173V84.9527C556.173 71.901 545.532 67.9791 536.113 67.9791C525.73 67.9791 517.757 72.6083 515.185 81.6094L526.051 83.1525C527.208 79.7771 530.487 76.8838 536.177 76.8838C541.578 76.8838 544.536 79.6485 544.536 84.5027V84.6956C544.536 88.0389 541.032 88.1996 532.32 89.1319C522.74 90.1606 513.578 93.0217 513.578 104.145C513.578 113.853 520.683 118.997 530.102 118.997ZM533.123 110.445C528.269 110.445 524.797 108.227 524.797 103.952C524.797 99.4833 528.687 97.6187 533.895 96.8793C536.949 96.4614 543.057 95.6899 544.568 94.4683V100.287C544.568 105.784 540.132 110.445 533.123 110.445ZM606.901 81.6737C605.294 73.3155 598.607 67.9791 587.034 67.9791C575.14 67.9791 567.039 73.8298 567.071 82.9596C567.039 90.1606 571.475 94.9184 580.958 96.8793L589.381 98.6474C593.914 99.644 596.035 101.476 596.035 104.273C596.035 107.649 592.371 110.188 586.841 110.188C581.505 110.188 578.033 107.874 577.036 103.437L565.689 104.53C567.135 113.596 574.754 118.964 586.873 118.964C599.218 118.964 607.93 112.567 607.962 103.212C607.93 96.1721 603.397 91.8644 594.074 89.8391L585.652 88.0389C580.637 86.9137 578.644 85.1778 578.676 82.3167C578.644 78.9734 582.341 76.6588 587.195 76.6588C592.564 76.6588 595.392 79.5842 596.293 82.831L606.901 81.6737ZM617.558 118H629.195V101.412L633.439 96.8793L648.548 118H662.467L642.215 89.9356L661.342 68.622H647.744L629.999 88.4568H629.195V52.1627H617.558V118Z" fill="black"/>
<rect x="174" width="171" height="174" transform="rotate(90 174 0)" fill="#F8F8F8"/>
<rect x="164" y="11" width="145" height="41" transform="rotate(90 164 11)" fill="#63FEF4" fill-opacity="0.4"/>
<rect x="52" y="11" width="98" height="41" transform="rotate(90 52 11)" fill="#63FEF4" fill-opacity="0.4"/>
<rect x="108" y="11" width="59" height="41" transform="rotate(90 108 11)" fill="#4AA8FF"/>
<rect x="52" y="117" width="40" height="41" transform="rotate(90 52 117)" fill="#4AA8FF"/>
<rect x="108" y="78" width="78" height="41" transform="rotate(90 108 78)" fill="#63FEF4" fill-opacity="0.4"/>
</svg>
